<?xml version="1.0" encoding="UTF-8" standalone="no"?>
<!DOCTYPE svg PUBLIC "-//W3C//DTD SVG 1.1//EN"
 "http://www.w3.org/Graphics/SVG/1.1/DTD/svg11.dtd">
<!-- Generated by graphviz version 15.1.0 (20260618.0150)
 -->
<!-- Title: Media pipeline and scheduled publishing Pages: 1 -->
<svg width="1203pt" height="1076pt"
 viewBox="0.00 0.00 1203.00 1076.00" xmlns="http://www.w3.org/2000/svg" xmlns:xlink="http://www.w3.org/1999/xlink">
<g id="graph0" class="graph" transform="scale(1 1) rotate(0) translate(28.8 1047.6)">
<title>Media pipeline and scheduled publishing</title>
<polygon fill="white" stroke="none" points="-28.8,28.8 -28.8,-1047.6 1174.62,-1047.6 1174.62,28.8 -28.8,28.8"/>
<text xml:space="preserve" text-anchor="middle" x="572.91" y="-8.15" font-family="Sans-Serif" font-size="13.00" fill="#2d3436">Media pipeline and scheduled publishing</text>
<g id="clust1" class="cluster">
<title>cluster_Upload (via mediaUpload, outside this diagram)</title>
<path fill="#e5f5fd" stroke="#aeb6be" d="M201.4,-834.25C201.4,-834.25 444.4,-834.25 444.4,-834.25 450.4,-834.25 456.4,-840.25 456.4,-846.25 456.4,-846.25 456.4,-998.8 456.4,-998.8 456.4,-1004.8 450.4,-1010.8 444.4,-1010.8 444.4,-1010.8 201.4,-1010.8 201.4,-1010.8 195.4,-1010.8 189.4,-1004.8 189.4,-998.8 189.4,-998.8 189.4,-846.25 189.4,-846.25 189.4,-840.25 195.4,-834.25 201.4,-834.25"/>
<text xml:space="preserve" text-anchor="middle" x="323.02" y="-995.4" font-family="Sans-Serif" font-size="12.00" fill="#2d3436">Upload (via mediaUpload, outside this diagram)</text>
</g>
<g id="clust2" class="cluster">
<title>cluster_Reliability</title>
<path fill="#e5f5fd" stroke="#aeb6be" d="M442.4,-32.5C442.4,-32.5 671.4,-32.5 671.4,-32.5 677.4,-32.5 683.4,-38.5 683.4,-44.5 683.4,-44.5 683.4,-454.45 683.4,-454.45 683.4,-460.45 677.4,-466.45 671.4,-466.45 671.4,-466.45 442.4,-466.45 442.4,-466.45 436.4,-466.45 430.4,-460.45 430.4,-454.45 430.4,-454.45 430.4,-44.5 430.4,-44.5 430.4,-38.5 436.4,-32.5 442.4,-32.5"/>
<text xml:space="preserve" text-anchor="middle" x="463.9" y="-451.05" font-family="Sans-Serif" font-size="12.00" fill="#2d3436">Reliability</text>
</g>
<!-- fceb304a20104e058f5a93e89ad81bb8 -->
<g id="node1" class="node">
<title>fceb304a20104e058f5a93e89ad81bb8</title>
<image xlink:href="C:\Users\Usuario\AppData\Roaming\Python\Python312\site-packages\resources/aws/storage\simple-storage-service-s3.png" width="100.8px" height="100.8px" preserveAspectRatio="xMinYMin meet" x="272" y="-961.05"/>
<text xml:space="preserve" text-anchor="middle" x="322.4" y="-846.6" font-family="Sans-Serif" font-size="12.00" fill="#2d3436">S3: uploads&#45;raw</text>
</g>
<!-- 40ff24975cc24029a45b824650699297 -->
<g id="node2" class="node">
<title>40ff24975cc24029a45b824650699297</title>
<image xlink:href="C:\Users\Usuario\AppData\Roaming\Python\Python312\site-packages\resources/aws/compute\lambda.png" width="100.8px" height="100.8px" preserveAspectRatio="xMinYMin meet" x="272" y="-686.05"/>
<text xml:space="preserve" text-anchor="middle" x="322.4" y="-571.6" font-family="Sans-Serif" font-size="12.00" fill="#2d3436">imageProcessor</text>
</g>
<!-- fceb304a20104e058f5a93e89ad81bb8&#45;&gt;40ff24975cc24029a45b824650699297 -->
<g id="edge1" class="edge">
<title>fceb304a20104e058f5a93e89ad81bb8&#45;&gt;40ff24975cc24029a45b824650699297</title>
<path fill="none" stroke="#7b8894" d="M322.4,-842.52C322.4,-804.07 322.4,-755.62 322.4,-715.38"/>
<polygon fill="#7b8894" stroke="#7b8894" points="325.9,-715.51 322.4,-705.51 318.9,-715.51 325.9,-715.51"/>
<text xml:space="preserve" text-anchor="middle" x="363.27" y="-784.5" font-family="Sans-Serif" font-size="13.00" fill="#2d3436">S3 event</text>
<text xml:space="preserve" text-anchor="middle" x="363.27" y="-768" font-family="Sans-Serif" font-size="13.00" fill="#2d3436">ObjectCreated</text>
</g>
<!-- 7f9fd709346b43f6bf32364230b4694d -->
<g id="node3" class="node">
<title>7f9fd709346b43f6bf32364230b4694d</title>
<image xlink:href="C:\Users\Usuario\AppData\Roaming\Python\Python312\site-packages\resources/aws/storage\simple-storage-service-s3.png" width="100.8px" height="100.8px" preserveAspectRatio="xMinYMin meet" x="0" y="-402.3"/>
<text xml:space="preserve" text-anchor="middle" x="50.4" y="-289.2" font-family="Sans-Serif" font-size="12.00" fill="#2d3436">S3: assets</text>
<text xml:space="preserve" text-anchor="middle" x="50.4" y="-273.45" font-family="Sans-Serif" font-size="12.00" fill="#2d3436">(media/* + variants)</text>
</g>
<!-- 40ff24975cc24029a45b824650699297&#45;&gt;7f9fd709346b43f6bf32364230b4694d -->
<g id="edge2" class="edge">
<title>40ff24975cc24029a45b824650699297&#45;&gt;7f9fd709346b43f6bf32364230b4694d</title>
<path fill="none" stroke="#7b8894" d="M272.22,-623.31C214.9,-607.58 122.89,-573.31 75.15,-507.45 62.25,-489.65 55.03,-467.67 51.19,-445.92"/>
<polygon fill="#7b8894" stroke="#7b8894" points="54.66,-445.46 49.7,-436.09 47.74,-446.5 54.66,-445.46"/>
<text xml:space="preserve" text-anchor="middle" x="154.28" y="-486.85" font-family="Sans-Serif" font-size="13.00" fill="#2d3436">AVIF/WebP variants + LQIP</text>
</g>
<!-- 70784d26e62b41ec82c1d9e488cdb93b -->
<g id="node8" class="node">
<title>70784d26e62b41ec82c1d9e488cdb93b</title>
<image xlink:href="C:\Users\Usuario\AppData\Roaming\Python\Python312\site-packages\resources/aws/database\dynamodb.png" width="100.8px" height="100.8px" preserveAspectRatio="xMinYMin meet" x="792" y="-402.3"/>
<text xml:space="preserve" text-anchor="middle" x="842.4" y="-287.85" font-family="Sans-Serif" font-size="12.00" fill="#2d3436">posts</text>
</g>
<!-- 40ff24975cc24029a45b824650699297&#45;&gt;70784d26e62b41ec82c1d9e488cdb93b -->
<g id="edge3" class="edge">
<title>40ff24975cc24029a45b824650699297&#45;&gt;70784d26e62b41ec82c1d9e488cdb93b</title>
<path fill="none" stroke="#7b8894" d="M372.61,-617.75C429.94,-597.06 524.99,-558.39 596.4,-507.45 612.97,-495.63 609.95,-483.56 628.15,-474.45 653.88,-461.56 665.74,-477.28 692.4,-466.45 725.43,-453.03 757.57,-430.41 783.56,-408.87"/>
<polygon fill="#7b8894" stroke="#7b8894" points="785.6,-411.73 790.98,-402.6 781.09,-406.39 785.6,-411.73"/>
<text xml:space="preserve" text-anchor="middle" x="662.27" y="-486.85" font-family="Sans-Serif" font-size="13.00" fill="#2d3436">UpdateItem</text>
</g>
<!-- 81feb74b3ce2483c942e0905d30daf6b -->
<g id="node9" class="node">
<title>81feb74b3ce2483c942e0905d30daf6b</title>
<image xlink:href="C:\Users\Usuario\AppData\Roaming\Python\Python312\site-packages\resources/aws/network\cloudfront.png" width="100.8px" height="100.8px" preserveAspectRatio="xMinYMin meet" x="250" y="-402.3"/>
<text xml:space="preserve" text-anchor="middle" x="300.4" y="-289.2" font-family="Sans-Serif" font-size="12.00" fill="#2d3436">CloudFront</text>
<text xml:space="preserve" text-anchor="middle" x="300.4" y="-273.45" font-family="Sans-Serif" font-size="12.00" fill="#2d3436">Public frontend</text>
</g>
<!-- 40ff24975cc24029a45b824650699297&#45;&gt;81feb74b3ce2483c942e0905d30daf6b -->
<g id="edge8" class="edge">
<title>40ff24975cc24029a45b824650699297&#45;&gt;81feb74b3ce2483c942e0905d30daf6b</title>
<path fill="none" stroke="#666666" stroke-dasharray="5,2" d="M272.85,-567.46C261.79,-548.92 251.65,-528.18 245.9,-507.45 240.26,-487.12 242.46,-465.59 248.43,-445.27"/>
<polygon fill="#666666" stroke="#666666" points="251.72,-446.48 251.52,-435.89 245.07,-444.29 251.72,-446.48"/>
<text xml:space="preserve" text-anchor="middle" x="297.65" y="-486.85" font-family="Sans-Serif" font-size="13.00" fill="#2d3436">CreateInvalidation</text>
</g>
<!-- de40d77cb8a548da9d8684a210632477 -->
<g id="node10" class="node">
<title>de40d77cb8a548da9d8684a210632477</title>
<image xlink:href="C:\Users\Usuario\AppData\Roaming\Python\Python312\site-packages\resources/aws/integration\simple-queue-service-sqs.png" width="100.8px" height="100.8px" preserveAspectRatio="xMinYMin meet" x="438" y="-402.3"/>
<text xml:space="preserve" text-anchor="middle" x="488.4" y="-289.2" font-family="Sans-Serif" font-size="12.00" fill="#2d3436">DLQ</text>
<text xml:space="preserve" text-anchor="middle" x="488.4" y="-273.45" font-family="Sans-Serif" font-size="12.00" fill="#2d3436">imageProcessor</text>
</g>
<!-- 40ff24975cc24029a45b824650699297&#45;&gt;de40d77cb8a548da9d8684a210632477 -->
<g id="edge10" class="edge">
<title>40ff24975cc24029a45b824650699297&#45;&gt;de40d77cb8a548da9d8684a210632477</title>
<path fill="none" stroke="red" stroke-dasharray="5,2" d="M345.94,-567.54C357.49,-538.06 372.69,-503.59 390.15,-474.45 401.96,-454.75 416.7,-434.79 431.14,-416.89"/>
<polygon fill="red" stroke="red" points="433.61,-419.41 437.24,-409.45 428.19,-414.97 433.61,-419.41"/>
<text xml:space="preserve" text-anchor="middle" x="418.27" y="-486.85" font-family="Sans-Serif" font-size="13.00" fill="#2d3436">on_failure</text>
</g>
<!-- b3e996f3ede14006b220c4f95de744cc -->
<g id="node4" class="node">
<title>b3e996f3ede14006b220c4f95de744cc</title>
<image xlink:href="C:\Users\Usuario\AppData\Roaming\Python\Python312\site-packages\resources/aws/integration\eventbridge.png" width="100.8px" height="100.8px" preserveAspectRatio="xMinYMin meet" x="695" y="-961.05"/>
<text xml:space="preserve" text-anchor="middle" x="745.4" y="-847.95" font-family="Sans-Serif" font-size="12.00" fill="#2d3436">EventBridge</text>
<text xml:space="preserve" text-anchor="middle" x="745.4" y="-832.2" font-family="Sans-Serif" font-size="12.00" fill="#2d3436">Schedule (15min)</text>
</g>
<!-- cd1955c3c0844d738b20f47b5e10936a -->
<g id="node5" class="node">
<title>cd1955c3c0844d738b20f47b5e10936a</title>
<image xlink:href="C:\Users\Usuario\AppData\Roaming\Python\Python312\site-packages\resources/aws/compute\lambda.png" width="100.8px" height="100.8px" preserveAspectRatio="xMinYMin meet" x="695" y="-686.05"/>
<text xml:space="preserve" text-anchor="middle" x="745.4" y="-571.6" font-family="Sans-Serif" font-size="12.00" fill="#2d3436">postScheduler</text>
</g>
<!-- b3e996f3ede14006b220c4f95de744cc&#45;&gt;cd1955c3c0844d738b20f47b5e10936a -->
<g id="edge4" class="edge">
<title>b3e996f3ede14006b220c4f95de744cc&#45;&gt;cd1955c3c0844d738b20f47b5e10936a</title>
<path fill="none" stroke="#7b8894" d="M745.4,-828.11C745.4,-792.38 745.4,-750.63 745.4,-715.24"/>
<polygon fill="#7b8894" stroke="#7b8894" points="748.9,-715.51 745.4,-705.51 741.9,-715.51 748.9,-715.51"/>
<text xml:space="preserve" text-anchor="middle" x="779.52" y="-776.25" font-family="Sans-Serif" font-size="13.00" fill="#2d3436">rate(15min)</text>
</g>
<!-- cd1955c3c0844d738b20f47b5e10936a&#45;&gt;70784d26e62b41ec82c1d9e488cdb93b -->
<g id="edge5" class="edge">
<title>cd1955c3c0844d738b20f47b5e10936a&#45;&gt;70784d26e62b41ec82c1d9e488cdb93b</title>
<path fill="none" stroke="#7b8894" d="M778.02,-567.51C786.62,-548.37 795.43,-527.32 802.4,-507.45 810.95,-483.07 818.58,-455.95 824.82,-431.32"/>
<polygon fill="#7b8894" stroke="#7b8894" points="828.2,-432.22 827.22,-421.67 821.41,-430.53 828.2,-432.22"/>
<text xml:space="preserve" text-anchor="middle" x="885.33" y="-495.1" font-family="Sans-Serif" font-size="13.00" fill="#2d3436">Query/UpdateItem</text>
<text xml:space="preserve" text-anchor="middle" x="885.33" y="-478.6" font-family="Sans-Serif" font-size="13.00" fill="#2d3436">(scheduled &#45;&gt; published)</text>
</g>
<!-- cd1955c3c0844d738b20f47b5e10936a&#45;&gt;81feb74b3ce2483c942e0905d30daf6b -->
<g id="edge9" class="edge">
<title>cd1955c3c0844d738b20f47b5e10936a&#45;&gt;81feb74b3ce2483c942e0905d30daf6b</title>
<path fill="none" stroke="#666666" stroke-dasharray="5,2" d="M695.25,-614.78C641.66,-592.45 555.32,-553.28 487.9,-507.45 469.81,-495.16 470.61,-484.89 451.4,-474.45 439.28,-467.86 433.46,-473.15 421.4,-466.45 398.81,-453.9 377.19,-436.19 358.63,-418.5"/>
<polygon fill="#666666" stroke="#666666" points="361.29,-416.2 351.69,-411.71 356.4,-421.2 361.29,-416.2"/>
<text xml:space="preserve" text-anchor="middle" x="539.65" y="-486.85" font-family="Sans-Serif" font-size="13.00" fill="#2d3436">CreateInvalidation</text>
</g>
<!-- 791ce4ff20914f7ab0cd05587e021496 -->
<g id="node11" class="node">
<title>791ce4ff20914f7ab0cd05587e021496</title>
<image xlink:href="C:\Users\Usuario\AppData\Roaming\Python\Python312\site-packages\resources/aws/integration\simple-queue-service-sqs.png" width="100.8px" height="100.8px" preserveAspectRatio="xMinYMin meet" x="575" y="-402.3"/>
<text xml:space="preserve" text-anchor="middle" x="625.4" y="-289.2" font-family="Sans-Serif" font-size="12.00" fill="#2d3436">DLQ</text>
<text xml:space="preserve" text-anchor="middle" x="625.4" y="-273.45" font-family="Sans-Serif" font-size="12.00" fill="#2d3436">postScheduler</text>
</g>
<!-- cd1955c3c0844d738b20f47b5e10936a&#45;&gt;791ce4ff20914f7ab0cd05587e021496 -->
<g id="edge11" class="edge">
<title>cd1955c3c0844d738b20f47b5e10936a&#45;&gt;791ce4ff20914f7ab0cd05587e021496</title>
<path fill="none" stroke="red" stroke-dasharray="5,2" d="M733.91,-567.52C727.57,-538.19 718.3,-503.85 705.4,-474.45 698.89,-459.6 690.61,-444.56 681.86,-430.35"/>
<polygon fill="red" stroke="red" points="684.85,-428.53 676.56,-421.94 678.93,-432.26 684.85,-428.53"/>
<text xml:space="preserve" text-anchor="middle" x="744.81" y="-486.85" font-family="Sans-Serif" font-size="13.00" fill="#2d3436">on_failure</text>
</g>
<!-- 24944f08842a4c429ba030ccb450455b -->
<g id="node6" class="node">
<title>24944f08842a4c429ba030ccb450455b</title>
<image xlink:href="C:\Users\Usuario\AppData\Roaming\Python\Python312\site-packages\resources/aws/integration\eventbridge.png" width="100.8px" height="100.8px" preserveAspectRatio="xMinYMin meet" x="980" y="-961.05"/>
<text xml:space="preserve" text-anchor="middle" x="1030.4" y="-847.95" font-family="Sans-Serif" font-size="12.00" fill="#2d3436">EventBridge</text>
<text xml:space="preserve" text-anchor="middle" x="1030.4" y="-832.2" font-family="Sans-Serif" font-size="12.00" fill="#2d3436">Schedule (daily)</text>
</g>
<!-- ce76b69c616e46ab93ca8b9c2b1fd1d9 -->
<g id="node7" class="node">
<title>ce76b69c616e46ab93ca8b9c2b1fd1d9</title>
<image xlink:href="C:\Users\Usuario\AppData\Roaming\Python\Python312\site-packages\resources/aws/compute\lambda.png" width="100.8px" height="100.8px" preserveAspectRatio="xMinYMin meet" x="980" y="-686.05"/>
<text xml:space="preserve" text-anchor="middle" x="1030.4" y="-574.3" font-family="Sans-Serif" font-size="12.00" fill="#2d3436">postCounterReconciler</text>
<text xml:space="preserve" text-anchor="middle" x="1030.4" y="-558.55" font-family="Sans-Serif" font-size="12.00" fill="#2d3436">(no DLQ yet &#45; a missed run</text>
<text xml:space="preserve" text-anchor="middle" x="1030.4" y="-542.8" font-family="Sans-Serif" font-size="12.00" fill="#2d3436">is caught the next day)</text>
</g>
<!-- 24944f08842a4c429ba030ccb450455b&#45;&gt;ce76b69c616e46ab93ca8b9c2b1fd1d9 -->
<g id="edge6" class="edge">
<title>24944f08842a4c429ba030ccb450455b&#45;&gt;ce76b69c616e46ab93ca8b9c2b1fd1d9</title>
<path fill="none" stroke="#7b8894" d="M1030.4,-828.11C1030.4,-801.74 1030.4,-772.07 1030.4,-744.12"/>
<polygon fill="#7b8894" stroke="#7b8894" points="1033.9,-744.18 1030.4,-734.18 1026.9,-744.18 1033.9,-744.18"/>
<text xml:space="preserve" text-anchor="middle" x="1062.65" y="-776.25" font-family="Sans-Serif" font-size="13.00" fill="#2d3436">rate(1 day)</text>
</g>
<!-- ce76b69c616e46ab93ca8b9c2b1fd1d9&#45;&gt;70784d26e62b41ec82c1d9e488cdb93b -->
<g id="edge7" class="edge">
<title>ce76b69c616e46ab93ca8b9c2b1fd1d9&#45;&gt;70784d26e62b41ec82c1d9e488cdb93b</title>
<path fill="none" stroke="#7b8894" d="M1000.28,-538.57C991.34,-516.6 980.39,-493.98 967.4,-474.45 949.26,-447.18 924.12,-421.24 901.14,-400.39"/>
<polygon fill="#7b8894" stroke="#7b8894" points="903.71,-397.99 893.92,-393.95 899.05,-403.22 903.71,-397.99"/>
<text xml:space="preserve" text-anchor="middle" x="1065.95" y="-495.1" font-family="Sans-Serif" font-size="13.00" fill="#2d3436">Scan + recompute</text>
<text xml:space="preserve" text-anchor="middle" x="1065.95" y="-478.6" font-family="Sans-Serif" font-size="13.00" fill="#2d3436">(self&#45;heals drifted counters)</text>
</g>
<!-- f2c3dd9460b54d7bb41c6ad533eebf6c -->
<g id="node12" class="node">
<title>f2c3dd9460b54d7bb41c6ad533eebf6c</title>
<image xlink:href="C:\Users\Usuario\AppData\Roaming\Python\Python312\site-packages\resources/aws/integration\simple-notification-service-sns.png" width="100.8px" height="100.8px" preserveAspectRatio="xMinYMin meet" x="506" y="-173.7"/>
<text xml:space="preserve" text-anchor="middle" x="556.4" y="-60.6" font-family="Sans-Serif" font-size="12.00" fill="#2d3436">SNS</text>
<text xml:space="preserve" text-anchor="middle" x="556.4" y="-44.85" font-family="Sans-Serif" font-size="12.00" fill="#2d3436">(email alerts)</text>
</g>
<!-- de40d77cb8a548da9d8684a210632477&#45;&gt;f2c3dd9460b54d7bb41c6ad533eebf6c -->
<g id="edge12" class="edge">
<title>de40d77cb8a548da9d8684a210632477&#45;&gt;f2c3dd9460b54d7bb41c6ad533eebf6c</title>
<path fill="none" stroke="#7b8894" d="M512.85,-269.41C517.99,-252.29 523.45,-234.1 528.7,-216.61"/>
<polygon fill="#7b8894" stroke="#7b8894" points="531.98,-217.86 531.5,-207.28 525.27,-215.85 531.98,-217.86"/>
</g>
<!-- 791ce4ff20914f7ab0cd05587e021496&#45;&gt;f2c3dd9460b54d7bb41c6ad533eebf6c -->
<g id="edge13" class="edge">
<title>791ce4ff20914f7ab0cd05587e021496&#45;&gt;f2c3dd9460b54d7bb41c6ad533eebf6c</title>
<path fill="none" stroke="#7b8894" d="M600.59,-269.41C595.37,-252.29 589.84,-234.1 584.51,-216.61"/>
<polygon fill="#7b8894" stroke="#7b8894" points="587.93,-215.82 581.67,-207.27 581.23,-217.86 587.93,-215.82"/>
</g>
</g>
</svg>
